# xmcd
#
# Track frame offsets: 
#        150
#        13177
#        25252
#        39361
#        50972
#        64191
#        79681
#        95069
#        109352
#        119601
#
# Disc length: 1738 seconds
#
# Revision: 0
# Processed by: cddbd v1.5.1PL2 Copyright (c) Steve Scherf et al.
# Submitted via: ExactAudioCopy v0.95a5
#
DISCID=8c06c80a
DTITLE=George Strait - Beyond The Blue Neon
DYEAR=1989
DGENRE=Country
TTITLE0=Beyond The Blue Neon
TTITLE1=Hollywood Squares
TTITLE2=Overnight Success
TTITLE3=Ace In The Hole
TTITLE4=Leavin's Been Comin' (For A Long Long Time)
TTITLE5=Baby's Gotten Good At Goodbye
TTITLE6=What's Going On In Your World
TTITLE7=Angel, Angelina
TTITLE8=Too Much Of Too Little
TTITLE9=Oh Me, Oh My Sweet Baby
EXTD=
EXTT0=
EXTT1=
EXTT2=
EXTT3=
EXTT4=
EXTT5=
EXTT6=
EXTT7=
EXTT8=
EXTT9=
PLAYORDER=
